/* XPM */
static char * 2d_xpm[] = {
"8 8 2 1",
" 	g #000000",
".	g #ffffff",
"        ",
"        ",
"   .. . ",
". .  .  ",
".    .  ",
" . .. . ",
"   .....",
"  .  .  "};
