/* XPM */
static char * 34_xpm[] = {
"40 40 3 1",
" 	c None",
".	c #000000",
"+	c #FFFFFF",
"..............................+++++.....",
"..............................+++++.....",
"..............................+++++.....",
"..............................+++++.....",
"..............................+++++.....",
"..........+++++...............+++++.....",
"..........+++++...............+++++.....",
"..........+++++...............+++++.....",
"..........+++++...............+++++.....",
"..........+++++...............+++++.....",
".....++++++++++..........++++++++++.....",
".....++++++++++..........++++++++++.....",
".....++++++++++..........++++++++++.....",
".....++++++++++..........++++++++++.....",
".....++++++++++..........++++++++++.....",
"...............+++++...............+++++",
"...............+++++...............+++++",
"...............+++++...............+++++",
"...............+++++...............+++++",
"...............+++++...............+++++",
"++++++++++.....+++++.....+++++.....+++++",
"++++++++++.....+++++.....+++++.....+++++",
"++++++++++.....+++++.....+++++.....+++++",
"++++++++++.....+++++.....+++++.....+++++",
"++++++++++.....+++++.....+++++.....+++++",
"...............++++++++++..........+++++",
"...............++++++++++..........+++++",
"...............++++++++++..........+++++",
"...............++++++++++..........+++++",
"...............++++++++++..........+++++",
"++++++++++++++++++++++++++++++.....+++++",
"++++++++++++++++++++++++++++++.....+++++",
"++++++++++++++++++++++++++++++.....+++++",
"++++++++++++++++++++++++++++++.....+++++",
"++++++++++++++++++++++++++++++.....+++++",
"...............++++++++++.....++++++++++",
"...............++++++++++.....++++++++++",
"...............++++++++++.....++++++++++",
"...............++++++++++.....++++++++++",
"...............++++++++++.....++++++++++"};
