/* XPM */
static char * 35_xpm[] = {
"40 40 3 1",
" 	c None",
".	c #FFFFFF",
"+	c #000000",
".....+++++++++++++++++++++++++++++++++++",
".....+++++++++++++++++++++++++++++++++++",
".....+++++++++++++++++++++++++++++++++++",
".....+++++++++++++++++++++++++++++++++++",
".....+++++++++++++++++++++++++++++++++++",
".....+++++++++++++++++++++++++++++++++++",
".....+++++++++++++++++++++++++++++++++++",
".....+++++++++++++++++++++++++++++++++++",
".....+++++++++++++++++++++++++++++++++++",
".....+++++++++++++++++++++++++++++++++++",
".....++++++++++++++++++++++++++++++.....",
".....++++++++++++++++++++++++++++++.....",
".....++++++++++++++++++++++++++++++.....",
".....++++++++++++++++++++++++++++++.....",
".....++++++++++++++++++++++++++++++.....",
".....+++++.....+++++++++++++++.....+++++",
".....+++++.....+++++++++++++++.....+++++",
".....+++++.....+++++++++++++++.....+++++",
".....+++++.....+++++++++++++++.....+++++",
".....+++++.....+++++++++++++++.....+++++",
".....++++++++++++++++++++.....++++++++++",
".....++++++++++++++++++++.....++++++++++",
".....++++++++++++++++++++.....++++++++++",
".....++++++++++++++++++++.....++++++++++",
".....++++++++++++++++++++.....++++++++++",
".....++++++++++.....+++++++++++++++.....",
".....++++++++++.....+++++++++++++++.....",
".....++++++++++.....+++++++++++++++.....",
".....++++++++++.....+++++++++++++++.....",
".....++++++++++.....+++++++++++++++.....",
"..........++++++++++.....+++++..........",
"..........++++++++++.....+++++..........",
"..........++++++++++.....+++++..........",
"..........++++++++++.....+++++..........",
"..........++++++++++.....+++++..........",
".....+++++.....+++++.....+++++.....+++++",
".....+++++.....+++++.....+++++.....+++++",
".....+++++.....+++++.....+++++.....+++++",
".....+++++.....+++++.....+++++.....+++++",
".....+++++.....+++++.....+++++.....+++++"};
