/* XPM */
static char * 3b_xpm[] = {
"40 40 3 1",
" 	c None",
".	c #FFFFFF",
"+	c #000000",
".....++++++++++++++++++++.....++++++++++",
".....++++++++++++++++++++.....++++++++++",
".....++++++++++++++++++++.....++++++++++",
".....++++++++++++++++++++.....++++++++++",
".....++++++++++++++++++++.....++++++++++",
".....+++++++++++++++++++++++++++++++++++",
".....+++++++++++++++++++++++++++++++++++",
".....+++++++++++++++++++++++++++++++++++",
".....+++++++++++++++++++++++++++++++++++",
".....+++++++++++++++++++++++++++++++++++",
"+++++..........++++++++++++++++++++.....",
"+++++..........++++++++++++++++++++.....",
"+++++..........++++++++++++++++++++.....",
"+++++..........++++++++++++++++++++.....",
"+++++..........++++++++++++++++++++.....",
".....++++++++++...............++++++++++",
".....++++++++++...............++++++++++",
".....++++++++++...............++++++++++",
".....++++++++++...............++++++++++",
".....++++++++++...............++++++++++",
"+++++++++++++++.....++++++++++++++++++++",
"+++++++++++++++.....++++++++++++++++++++",
"+++++++++++++++.....++++++++++++++++++++",
"+++++++++++++++.....++++++++++++++++++++",
"+++++++++++++++.....++++++++++++++++++++",
"+++++++++++++++.....+++++.....++++++++++",
"+++++++++++++++.....+++++.....++++++++++",
"+++++++++++++++.....+++++.....++++++++++",
"+++++++++++++++.....+++++.....++++++++++",
"+++++++++++++++.....+++++.....++++++++++",
"+++++.....++++++++++++++++++++++++++++++",
"+++++.....++++++++++++++++++++++++++++++",
"+++++.....++++++++++++++++++++++++++++++",
"+++++.....++++++++++++++++++++++++++++++",
"+++++.....++++++++++++++++++++++++++++++",
"++++++++++++++++++++++++++++++++++++++++",
"++++++++++++++++++++++++++++++++++++++++",
"++++++++++++++++++++++++++++++++++++++++",
"++++++++++++++++++++++++++++++++++++++++",
"++++++++++++++++++++++++++++++++++++++++"};
