/* XPM */
static char * AlienSprCYA_xpm[] = {
"80 40 3 1",
" 	c None",
".	c #000000",
"+	c #FFFFFF",
"..................................................++++++++++....................",
"..................................................++++++++++....................",
"..................................................++++++++++....................",
"..................................................++++++++++....................",
"..................................................++++++++++....................",
"...............+++++.........................++++++++++++++++++++...............",
"...............+++++.........................++++++++++++++++++++...............",
"...............+++++.........................++++++++++++++++++++...............",
"...............+++++.........................++++++++++++++++++++...............",
"...............+++++.........................++++++++++++++++++++...............",
"...............+++++....................++++++++++++++++++++++++++++++..........",
"...............+++++....................++++++++++++++++++++++++++++++..........",
"...............+++++....................++++++++++++++++++++++++++++++..........",
"...............+++++....................++++++++++++++++++++++++++++++..........",
"...............+++++....................++++++++++++++++++++++++++++++..........",
"...............+++++++++++++++.....++++++++++.....++++++++++.....++++++++++.....",
"...............+++++++++++++++.....++++++++++.....++++++++++.....++++++++++.....",
"...............+++++++++++++++.....++++++++++.....++++++++++.....++++++++++.....",
"...............+++++++++++++++.....++++++++++.....++++++++++.....++++++++++.....",
"...............+++++++++++++++.....++++++++++.....++++++++++.....++++++++++.....",
"...............+++++..........+++++++++++++++++++++++++++++++++++++++++++++.....",
"...............+++++..........+++++++++++++++++++++++++++++++++++++++++++++.....",
"...............+++++..........+++++++++++++++++++++++++++++++++++++++++++++.....",
"...............+++++..........+++++++++++++++++++++++++++++++++++++++++++++.....",
"...............+++++..........+++++++++++++++++++++++++++++++++++++++++++++.....",
"..........+++++.....+++++...............+++++.....++++++++++.....+++++..........",
"..........+++++.....+++++...............+++++.....++++++++++.....+++++..........",
"..........+++++.....+++++...............+++++.....++++++++++.....+++++..........",
"..........+++++.....+++++...............+++++.....++++++++++.....+++++..........",
"..........+++++.....+++++...............+++++.....++++++++++.....+++++..........",
".....+++++...............+++++.....+++++..............................+++++.....",
".....+++++...............+++++.....+++++..............................+++++.....",
".....+++++...............+++++.....+++++..............................+++++.....",
".....+++++...............+++++.....+++++..............................+++++.....",
".....+++++...............+++++.....+++++..............................+++++.....",
".....+++++...............+++++..........+++++....................+++++..........",
".....+++++...............+++++..........+++++....................+++++..........",
".....+++++...............+++++..........+++++....................+++++..........",
".....+++++...............+++++..........+++++....................+++++..........",
".....+++++...............+++++..........+++++....................+++++.........."};
