/* XPM */
static char * Alien1b_xpm[] = {
"16 8 2 1",
" 	g #000000",
".	g #ffffff",
"     .     .    ",
"      .   .     ",
"     .......    ",
"    .. ... ..   ",
"   ...........  ",
"   . ....... .  ",
"   . .     . .  ",
"      .. ..     "};
