/* XPM */
static char * f_xpm[] = {
"8 8 2 1",
" 	g #000000",
".	g #ffffff",
"        ",
" .....  ",
" .      ",
" .      ",
" ....   ",
" .      ",
" .      ",
" .      "};
