/* XPM */
static char * PlungerShot1_xpm[] = {
"3 8 2 1",
" 	g None",
".	g #000000",
" . ",
" . ",
" . ",
"...",
" . ",
" . ",
"   ",
"   "};
