/* XPM */
static char * PlungerShot0_xpm[] = {
"15 40 3 1",
" 	c None",
".	c #000000",
"+	c #FFFFFF",
".....+++++.....",
".....+++++.....",
".....+++++.....",
".....+++++.....",
".....+++++.....",
".....+++++.....",
".....+++++.....",
".....+++++.....",
".....+++++.....",
".....+++++.....",
".....+++++.....",
".....+++++.....",
".....+++++.....",
".....+++++.....",
".....+++++.....",
".....+++++.....",
".....+++++.....",
".....+++++.....",
".....+++++.....",
".....+++++.....",
".....+++++.....",
".....+++++.....",
".....+++++.....",
".....+++++.....",
".....+++++.....",
"+++++++++++++++",
"+++++++++++++++",
"+++++++++++++++",
"+++++++++++++++",
"+++++++++++++++",
"...............",
"...............",
"...............",
"...............",
"...............",
"...............",
"...............",
"...............",
"...............",
"..............."};
