/* XPM */
static char * PlungerShot3_xpm[] = {
"15 40 3 1",
" 	c None",
".	c #FFFFFF",
"+	c #000000",
"...............",
"...............",
"...............",
"...............",
"...............",
"+++++.....+++++",
"+++++.....+++++",
"+++++.....+++++",
"+++++.....+++++",
"+++++.....+++++",
"+++++.....+++++",
"+++++.....+++++",
"+++++.....+++++",
"+++++.....+++++",
"+++++.....+++++",
"+++++.....+++++",
"+++++.....+++++",
"+++++.....+++++",
"+++++.....+++++",
"+++++.....+++++",
"+++++.....+++++",
"+++++.....+++++",
"+++++.....+++++",
"+++++.....+++++",
"+++++.....+++++",
"+++++.....+++++",
"+++++.....+++++",
"+++++.....+++++",
"+++++.....+++++",
"+++++.....+++++",
"+++++++++++++++",
"+++++++++++++++",
"+++++++++++++++",
"+++++++++++++++",
"+++++++++++++++",
"+++++++++++++++",
"+++++++++++++++",
"+++++++++++++++",
"+++++++++++++++",
"+++++++++++++++"};
