/* XPM */
static char * PlungerShot1_xpm[] = {
"15 40 3 1",
" 	c None",
".	c #000000",
"+	c #FFFFFF",
".....+++++.....",
".....+++++.....",
".....+++++.....",
".....+++++.....",
".....+++++.....",
".....+++++.....",
".....+++++.....",
".....+++++.....",
".....+++++.....",
".....+++++.....",
".....+++++.....",
".....+++++.....",
".....+++++.....",
".....+++++.....",
".....+++++.....",
"+++++++++++++++",
"+++++++++++++++",
"+++++++++++++++",
"+++++++++++++++",
"+++++++++++++++",
".....+++++.....",
".....+++++.....",
".....+++++.....",
".....+++++.....",
".....+++++.....",
".....+++++.....",
".....+++++.....",
".....+++++.....",
".....+++++.....",
".....+++++.....",
"...............",
"...............",
"...............",
"...............",
"...............",
"...............",
"...............",
"...............",
"...............",
"..............."};
