/* XPM */
static char * q_xpm[] = {
"8 8 2 1",
" 	g #000000",
".	g #ffffff",,
"        ",
"  ...   ",
" .   .  ",
" .   .  ",
" .   .  ",
" . . .  ",
" .  .   ",
"  .. .  "};
