/* XPM */
static char * ShieldImage_xpm[] = {
"110 80 3 1",
" 	c None",
".	c #000000",
"+	c #FFFFFF",
"....................++++++++++++++++++++++++++++++++++++++++++++++++++++++++++++++++++++++....................",
"....................++++++++++++++++++++++++++++++++++++++++++++++++++++++++++++++++++++++....................",
"....................++++++++++++++++++++++++++++++++++++++++++++++++++++++++++++++++++++++....................",
"....................++++++++++++++++++++++++++++++++++++++++++++++++++++++++++++++++++++++....................",
"....................++++++++++++++++++++++++++++++++++++++++++++++++++++++++++++++++++++++....................",
"...............++++++++++++++++++++++++++++++++++++++++++++++++++++++++++++++++++++++++++++++++...............",
"...............++++++++++++++++++++++++++++++++++++++++++++++++++++++++++++++++++++++++++++++++...............",
"...............++++++++++++++++++++++++++++++++++++++++++++++++++++++++++++++++++++++++++++++++...............",
"...............++++++++++++++++++++++++++++++++++++++++++++++++++++++++++++++++++++++++++++++++...............",
"...............++++++++++++++++++++++++++++++++++++++++++++++++++++++++++++++++++++++++++++++++...............",
"..........++++++++++++++++++++++++++++++++++++++++++++++++++++++++++++++++++++++++++++++++++++++++++..........",
"..........++++++++++++++++++++++++++++++++++++++++++++++++++++++++++++++++++++++++++++++++++++++++++..........",
"..........++++++++++++++++++++++++++++++++++++++++++++++++++++++++++++++++++++++++++++++++++++++++++..........",
"..........++++++++++++++++++++++++++++++++++++++++++++++++++++++++++++++++++++++++++++++++++++++++++..........",
"..........++++++++++++++++++++++++++++++++++++++++++++++++++++++++++++++++++++++++++++++++++++++++++..........",
".....++++++++++++++++++++++++++++++++++++++++++++++++++++++++++++++++++++++++++++++++++++++++++++++++++++.....",
".....++++++++++++++++++++++++++++++++++++++++++++++++++++++++++++++++++++++++++++++++++++++++++++++++++++.....",
".....++++++++++++++++++++++++++++++++++++++++++++++++++++++++++++++++++++++++++++++++++++++++++++++++++++.....",
".....++++++++++++++++++++++++++++++++++++++++++++++++++++++++++++++++++++++++++++++++++++++++++++++++++++.....",
".....++++++++++++++++++++++++++++++++++++++++++++++++++++++++++++++++++++++++++++++++++++++++++++++++++++.....",
"++++++++++++++++++++++++++++++++++++++++++++++++++++++++++++++++++++++++++++++++++++++++++++++++++++++++++++++",
"++++++++++++++++++++++++++++++++++++++++++++++++++++++++++++++++++++++++++++++++++++++++++++++++++++++++++++++",
"++++++++++++++++++++++++++++++++++++++++++++++++++++++++++++++++++++++++++++++++++++++++++++++++++++++++++++++",
"++++++++++++++++++++++++++++++++++++++++++++++++++++++++++++++++++++++++++++++++++++++++++++++++++++++++++++++",
"++++++++++++++++++++++++++++++++++++++++++++++++++++++++++++++++++++++++++++++++++++++++++++++++++++++++++++++",
"++++++++++++++++++++++++++++++++++++++++++++++++++++++++++++++++++++++++++++++++++++++++++++++++++++++++++++++",
"++++++++++++++++++++++++++++++++++++++++++++++++++++++++++++++++++++++++++++++++++++++++++++++++++++++++++++++",
"++++++++++++++++++++++++++++++++++++++++++++++++++++++++++++++++++++++++++++++++++++++++++++++++++++++++++++++",
"++++++++++++++++++++++++++++++++++++++++++++++++++++++++++++++++++++++++++++++++++++++++++++++++++++++++++++++",
"++++++++++++++++++++++++++++++++++++++++++++++++++++++++++++++++++++++++++++++++++++++++++++++++++++++++++++++",
"++++++++++++++++++++++++++++++++++++++++++++++++++++++++++++++++++++++++++++++++++++++++++++++++++++++++++++++",
"++++++++++++++++++++++++++++++++++++++++++++++++++++++++++++++++++++++++++++++++++++++++++++++++++++++++++++++",
"++++++++++++++++++++++++++++++++++++++++++++++++++++++++++++++++++++++++++++++++++++++++++++++++++++++++++++++",
"++++++++++++++++++++++++++++++++++++++++++++++++++++++++++++++++++++++++++++++++++++++++++++++++++++++++++++++",
"++++++++++++++++++++++++++++++++++++++++++++++++++++++++++++++++++++++++++++++++++++++++++++++++++++++++++++++",
"++++++++++++++++++++++++++++++++++++++++++++++++++++++++++++++++++++++++++++++++++++++++++++++++++++++++++++++",
"++++++++++++++++++++++++++++++++++++++++++++++++++++++++++++++++++++++++++++++++++++++++++++++++++++++++++++++",
"++++++++++++++++++++++++++++++++++++++++++++++++++++++++++++++++++++++++++++++++++++++++++++++++++++++++++++++",
"++++++++++++++++++++++++++++++++++++++++++++++++++++++++++++++++++++++++++++++++++++++++++++++++++++++++++++++",
"++++++++++++++++++++++++++++++++++++++++++++++++++++++++++++++++++++++++++++++++++++++++++++++++++++++++++++++",
"++++++++++++++++++++++++++++++++++++++++++++++++++++++++++++++++++++++++++++++++++++++++++++++++++++++++++++++",
"++++++++++++++++++++++++++++++++++++++++++++++++++++++++++++++++++++++++++++++++++++++++++++++++++++++++++++++",
"++++++++++++++++++++++++++++++++++++++++++++++++++++++++++++++++++++++++++++++++++++++++++++++++++++++++++++++",
"++++++++++++++++++++++++++++++++++++++++++++++++++++++++++++++++++++++++++++++++++++++++++++++++++++++++++++++",
"++++++++++++++++++++++++++++++++++++++++++++++++++++++++++++++++++++++++++++++++++++++++++++++++++++++++++++++",
"++++++++++++++++++++++++++++++++++++++++++++++++++++++++++++++++++++++++++++++++++++++++++++++++++++++++++++++",
"++++++++++++++++++++++++++++++++++++++++++++++++++++++++++++++++++++++++++++++++++++++++++++++++++++++++++++++",
"++++++++++++++++++++++++++++++++++++++++++++++++++++++++++++++++++++++++++++++++++++++++++++++++++++++++++++++",
"++++++++++++++++++++++++++++++++++++++++++++++++++++++++++++++++++++++++++++++++++++++++++++++++++++++++++++++",
"++++++++++++++++++++++++++++++++++++++++++++++++++++++++++++++++++++++++++++++++++++++++++++++++++++++++++++++",
"++++++++++++++++++++++++++++++++++++++++++++++++++++++++++++++++++++++++++++++++++++++++++++++++++++++++++++++",
"++++++++++++++++++++++++++++++++++++++++++++++++++++++++++++++++++++++++++++++++++++++++++++++++++++++++++++++",
"++++++++++++++++++++++++++++++++++++++++++++++++++++++++++++++++++++++++++++++++++++++++++++++++++++++++++++++",
"++++++++++++++++++++++++++++++++++++++++++++++++++++++++++++++++++++++++++++++++++++++++++++++++++++++++++++++",
"++++++++++++++++++++++++++++++++++++++++++++++++++++++++++++++++++++++++++++++++++++++++++++++++++++++++++++++",
"++++++++++++++++++++++++++++++++++++++++++++++++++++++++++++++++++++++++++++++++++++++++++++++++++++++++++++++",
"++++++++++++++++++++++++++++++++++++++++++++++++++++++++++++++++++++++++++++++++++++++++++++++++++++++++++++++",
"++++++++++++++++++++++++++++++++++++++++++++++++++++++++++++++++++++++++++++++++++++++++++++++++++++++++++++++",
"++++++++++++++++++++++++++++++++++++++++++++++++++++++++++++++++++++++++++++++++++++++++++++++++++++++++++++++",
"++++++++++++++++++++++++++++++++++++++++++++++++++++++++++++++++++++++++++++++++++++++++++++++++++++++++++++++",
"+++++++++++++++++++++++++++++++++++...................................++++++++++++++++++++++++++++++++++++++++",
"+++++++++++++++++++++++++++++++++++...................................++++++++++++++++++++++++++++++++++++++++",
"+++++++++++++++++++++++++++++++++++...................................++++++++++++++++++++++++++++++++++++++++",
"+++++++++++++++++++++++++++++++++++...................................++++++++++++++++++++++++++++++++++++++++",
"+++++++++++++++++++++++++++++++++++...................................++++++++++++++++++++++++++++++++++++++++",
"++++++++++++++++++++++++++++++.............................................+++++++++++++++++++++++++++++++++++",
"++++++++++++++++++++++++++++++.............................................+++++++++++++++++++++++++++++++++++",
"++++++++++++++++++++++++++++++.............................................+++++++++++++++++++++++++++++++++++",
"++++++++++++++++++++++++++++++.............................................+++++++++++++++++++++++++++++++++++",
"++++++++++++++++++++++++++++++.............................................+++++++++++++++++++++++++++++++++++",
"+++++++++++++++++++++++++.......................................................++++++++++++++++++++++++++++++",
"+++++++++++++++++++++++++.......................................................++++++++++++++++++++++++++++++",
"+++++++++++++++++++++++++.......................................................++++++++++++++++++++++++++++++",
"+++++++++++++++++++++++++.......................................................++++++++++++++++++++++++++++++",
"+++++++++++++++++++++++++.......................................................++++++++++++++++++++++++++++++",
"+++++++++++++++++++++++++.......................................................++++++++++++++++++++++++++++++",
"+++++++++++++++++++++++++.......................................................++++++++++++++++++++++++++++++",
"+++++++++++++++++++++++++.......................................................++++++++++++++++++++++++++++++",
"+++++++++++++++++++++++++.......................................................++++++++++++++++++++++++++++++",
"+++++++++++++++++++++++++.......................................................++++++++++++++++++++++++++++++"};
