/* XPM */
static char * ShotExploding_xpm[] = {
"40 40 3 1",
" 	c None",
".	c #FFFFFF",
"+	c #000000",
".....+++++++++++++++.....++++++++++.....",
".....+++++++++++++++.....++++++++++.....",
".....+++++++++++++++.....++++++++++.....",
".....+++++++++++++++.....++++++++++.....",
".....+++++++++++++++.....++++++++++.....",
"++++++++++.....+++++++++++++++.....+++++",
"++++++++++.....+++++++++++++++.....+++++",
"++++++++++.....+++++++++++++++.....+++++",
"++++++++++.....+++++++++++++++.....+++++",
"++++++++++.....+++++++++++++++.....+++++",
"+++++..............................+++++",
"+++++..............................+++++",
"+++++..............................+++++",
"+++++..............................+++++",
"+++++..............................+++++",
"........................................",
"........................................",
"........................................",
"........................................",
"........................................",
"........................................",
"........................................",
"........................................",
"........................................",
"........................................",
"+++++..............................+++++",
"+++++..............................+++++",
"+++++..............................+++++",
"+++++..............................+++++",
"+++++..............................+++++",
"++++++++++.....++++++++++.....++++++++++",
"++++++++++.....++++++++++.....++++++++++",
"++++++++++.....++++++++++.....++++++++++",
"++++++++++.....++++++++++.....++++++++++",
"++++++++++.....++++++++++.....++++++++++",
".....++++++++++.....+++++++++++++++.....",
".....++++++++++.....+++++++++++++++.....",
".....++++++++++.....+++++++++++++++.....",
".....++++++++++.....+++++++++++++++.....",
".....++++++++++.....+++++++++++++++....."};
