/* XPM */
static char * SquiglyShot1_xpm[] = {
"15 40 3 1",
" 	c None",
".	c #FFFFFF",
"+	c #000000",
".....++++++++++",
".....++++++++++",
".....++++++++++",
".....++++++++++",
".....++++++++++",
"+++++.....+++++",
"+++++.....+++++",
"+++++.....+++++",
"+++++.....+++++",
"+++++.....+++++",
"++++++++++.....",
"++++++++++.....",
"++++++++++.....",
"++++++++++.....",
"++++++++++.....",
"+++++.....+++++",
"+++++.....+++++",
"+++++.....+++++",
"+++++.....+++++",
"+++++.....+++++",
".....++++++++++",
".....++++++++++",
".....++++++++++",
".....++++++++++",
".....++++++++++",
"+++++.....+++++",
"+++++.....+++++",
"+++++.....+++++",
"+++++.....+++++",
"+++++.....+++++",
"++++++++++.....",
"++++++++++.....",
"++++++++++.....",
"++++++++++.....",
"++++++++++.....",
"+++++++++++++++",
"+++++++++++++++",
"+++++++++++++++",
"+++++++++++++++",
"+++++++++++++++"};
