/* XPM */
static char * SquiglyShot_xpm[] = {
"3 8 2 1",
" 	g #000000",
".	g #ffffff",
" . ",
".  ",
" . ",
"  .",
" . ",
".  ",
" . ",
"   "};
