/* XPM */
static char * 2_xpm[] = {
"8 8 2 1",
" 	g None",
".	g #000000",
"        ",
"  ...   ",
" .   .  ",
"     .  ",
"   ..   ",
"  .     ",
" .      ",
" .....  "};
