/* XPM */
static char * 3b_xpm[] = {
"8 8 2 1",
" 	g None",
".	g #000000",
".    .  ",
".       ",
" ..    .",
".  ...  ",
"   .    ",
"   . .  ",
" .      ",
"        "};
