/* XPM */
static char * 5_xpm[] = {
"8 8 2 1",
" 	g None",
".	g #000000",
"        ",
" .....  ",
" .      ",
" ....   ",
"     .  ",
"     .  ",
" .   .  ",
"  ...   "};
