/* XPM */
static char * AlienSprCYA_xpm[] = {
"16 8 2 1",
" 	g #000000",
".	g #ffffff",
"          ..    ",
"   .     ....   ",
"   .    ......  ",
"   ... .. .. .. ",
"   .  ......... ",
"  . .   . .. .  ",
" .   . .      . ",
" .   .  .    .  "};
