/* XPM */
static char * AShotExplo_xpm[] = {
"6 8 2 1",
" 	g #000000",
".	g #ffffff",
"  .   ",
".   . ",
"  .. .",
" .... ",
". ... ",
" .....",
". ... ",
" . . ."};
