/* XPM */
static char * h_xpm[] = {
"8 8 2 1",
" 	g #000000",
".	g #ffffff",
"        ",
" .   .  ",
" .   .  ",
" .   .  ",
" .....  ",
" .   .  ",
" .   .  ",
" .   .  "};
