/* XPM */
static char * PlungerShot2_xpm[] = {
"3 8 2 1",
" 	g #000000",
".	g #ffffff",
" . ",
" . ",
"...",
" . ",
" . ",
" . ",
"   ",
"   "};
