/* XPM */
static char * PlungerShot3_xpm[] = {
"3 8 2 1",
" 	g None",
".	g #000000",
"...",
" . ",
" . ",
" . ",
" . ",
" . ",
"   ",
"   "};
