/* XPM */
static char * ShieldImage_xpm[] = {
"22 16 2 1",
" 	g None",
".	g #000000",
"    ..............    ",
"   ................   ",
"  ..................  ",
" .................... ",
"......................",
"......................",
"......................",
"......................",
"......................",
"......................",
"......................",
"......................",
".......       ........",
"......         .......",
".....           ......",
".....           ......"};
