/* XPM */
static char * SquiglyShot0_xpm[] = {
"3 8 2 1",
" 	g #000000",
".	g #ffffff",
".  ",
" . ",
"  .",
" . ",
".  ",
" . ",
"  .",
"   "};
