/* XPM */
static char * 35_xpm[] = {
"8 8 2 1",
" 	g None",
".	g #000000",
".       ",
".       ",
".      .",
". .   . ",
".    .  ",
".  .   .",
"..  . ..",
". . . . "};
